<svg xmlns="http://www.w3.org/2000/svg" viewBox="0 0 939.25 501.78"><title>eTray_logo</title><g id="Layer_2" data-name="Layer 2"><g id="Layer_1-2" data-name="Layer 1"><path d="M213.56,406c1.74-22.79,3.74-49.33,5.83-75.86,2.74-34.85,5.82-69.67,8.22-104.54,1.25-18.33-5.35-34.3-17.39-48.06-3.19-3.63-6.2-7.48-9.77-10.69-18.09-16.25-27-36.75-28.69-60.7-1.58-22.07.57-43.57,9.31-64.13,10.61-24.95,36.48-41.95,64-42,27.81,0,54,16.85,64.45,42.06,11.68,28.26,12.71,57.3,5.17,86.74-3.54,13.81-11.72,24.83-21.44,35-5.87,6.12-11.6,12.42-16.88,19.05-9.49,11.92-14.3,25.8-13.43,40.92,1.61,27.93,3.56,55.86,6.26,83.71,4.1,42.46,8.89,84.89,6.3,127.64a413.93,413.93,0,0,1-5.28,44.09c-1.66,9.86-6.51,18.32-17.21,21.39-14.22,4.08-26.93-2.22-31.11-16.52a158.08,158.08,0,0,1-5.21-28.86C215.21,440.11,214.7,425,213.56,406Z"/><path d="M70.68,58.65v-47a32,32,0,0,1,.12-4.49C71.41,3,75.15-.34,79.13.1c4.32.48,7,3,7.45,7.41a42.16,42.16,0,0,1,.06,4.5q0,46.5,0,93c0,.84,0,1.67,0,2.5.07,5.83,3.62,10.5,7.88,10.36s7.52-4.45,7.54-10.2c.07-25.33,0-50.67,0-76,0-7.67-.1-15.33,0-23C102.2,3.55,105.37.22,110,0a7.82,7.82,0,0,1,8.43,7.48c3,35.14,8.71,70.1,7.42,105.53-.79,21.66-8,40.36-24.15,55.68-13.75,13-21.31,29.68-20.55,48.76,1,24.76,3.22,49.48,5.16,74.2,2.61,33.36,5.79,66.67,8.11,100.05,1.78,25.66.19,51.29-3.53,76.74-1.43,9.75-3.26,19.45-10.82,26.79-10.18,9.89-29,8.17-37.11-3.44-5.66-8.1-7-17.54-8.25-27-5.19-38.72-4-77.47-.61-116.25,3.71-42.48,7.61-85,10.8-127.48,1.46-19.57-4.93-37.37-19.17-50.81C7,152.72-.75,131.21.06,106.56c.79-24.46,3.2-48.86,5-73.27C5.68,25.14,6.59,17,7.44,8.9c.62-5.83,4-9.22,8.75-8.85S24,4.27,24,9.92q.06,47.75,0,95.5a33.18,33.18,0,0,0,.12,5c.62,4.08,3.18,7,7.11,7.28s6.77-2.53,7.69-6.54a24.88,24.88,0,0,0,.35-5.47q0-47,0-94a21.55,21.55,0,0,1,.34-5.46c1-3.78,3.68-6.08,7.58-6.09S54,2,54.76,6.09A38.44,38.44,0,0,1,55.5,13q.06,46.76,0,93.5c0,1-.06,2,0,3,.27,4.66,3.17,8,7.13,8.29,3.51.24,7.37-3.43,7.92-7.66a35.3,35.3,0,0,0,.11-4.49Z"/><path d="M514.07,168.83a51.77,51.77,0,0,1-6.12,0c-14-1.68-23.23,4.66-29.05,17-2.19,4.64-4.59,9.18-7,13.89h-6.66V160.08H598.56v39.2c-4.57,1.57-7.43.46-8.93-4.43a39.7,39.7,0,0,0-4.47-8.9c-10.4-16.81-11.64-18-35.9-16.61v5.29q0,49.47,0,99c0,11.43,2,13.83,13.27,16,2.58.5,5.17.93,7.89,1.41v7.47H493.84V291c3.57-.45,7.17-.84,10.75-1.35,6.63-.95,9.93-4.1,9.95-10.36.1-36.32.05-72.64,0-109A7.31,7.31,0,0,0,514.07,168.83Z"/><path d="M821.31,290.11c1.78,5.65-.74,8.28-5.69,8.86-7.86.91-15.75,2.16-23.62,2.12-8.45,0-14.92-4.25-18.12-13.15-1.42,1.14-2.56,2-3.61,2.9-10.69,9.53-23.19,12.6-37.1,10.15-10.94-1.93-18.92-9.57-20.51-19.19-2-12.09,2.71-23.19,13.41-28.07,9.63-4.39,19.92-7.33,29.93-10.88,1.72-.6,3.6-.81,5.25-1.55,4.1-1.82,8.12-3.85,12.17-5.8-.31-8.71,1.59-17.88-4.37-25.51-4-5.11-15.22-5.75-20-1.26-.84.77-.73,2.86-.62,4.31.36,4.54,1.56,9.13,1.17,13.59-.21,2.32-2.61,5.21-4.81,6.45a21,21,0,0,1-21.88-.1c-7.37-4.31-7.89-14.74-1.32-21.1,7.23-7,16.43-9.84,26-11.69a86.29,86.29,0,0,1,35.21.77c14.88,3.3,22.75,13.36,22.78,29.13,0,14.65-.33,29.3-.89,43.94-.43,11.49,2.52,16.79,15.07,15.78A6.43,6.43,0,0,1,821.31,290.11Zm-48.24-44.76c-6.16,2.88-11.83,5.19-17.16,8.1-7.08,3.87-10,10.41-10,18.25,0,5.16,1.09,10.11,6.24,12.68a14.14,14.14,0,0,0,15.11-1.13c2.46-1.75,5.41-4.78,5.59-7.4C773.47,266.11,773.07,256.3,773.07,245.35Z"/><path d="M863,324c4.2-6.38,8.6-12.73,12.58-19.34.81-1.36.64-4-.11-5.51-13-26.61-25.91-53.25-39.45-79.57-2.07-4-6.67-7.54-10.93-9.41-4.42-1.95-4.69-4.17-3.67-8.08h59v6.05c-.28.23-.49.55-.75.6-12.37,2.07-12.91,3.06-7.49,14,6.92,14,13.87,28,21.15,42.66,1-1.74,1.68-2.77,2.16-3.9,5.36-12.53,10.75-25.07,16-37.65,3.66-8.73,2.3-11.33-7-14-1.58-.45-3.17-.85-4.89-1.3v-6.41h39.59v6.55c-9.15,1.67-13.84,8.24-17.48,16.41q-17.89,40.11-36.32,80c-4.91,10.64-11,20.58-19.87,28.5-7.34,6.59-15.79,9.9-25.73,7.28a22,22,0,0,1-7.17-3.31c-7.47-5.39-9.27-14.58-4.48-21.53,4.47-6.48,14.19-8.39,21.42-3.53C854.13,315.52,857.94,319.57,863,324Z"/><path d="M457.27,245.87h-65c-2.67,15.93,4.76,34.14,16.6,38.95,16.34,6.66,30.25,3.61,44.18-14.69l7,5a51.81,51.81,0,0,1-32.14,24.55,64,64,0,0,1-43-3.22c-19.46-8.43-30.07-27.84-28.16-50.58,1.86-22,16.77-39.85,37.85-45.13a68.11,68.11,0,0,1,34.61.36C449,206.46,459.25,222.66,457.27,245.87Zm-66.83-7.54h33.11c-1-7.57-1.55-14.66-3-21.57-1.16-5.6-4.17-10.23-10.7-10.88-6.07-.61-11.54,2.28-13.89,9.07C393.43,222.33,392.3,230.2,390.44,238.33Z"/><path d="M671.44,292.06v6.45H606.77v-6.16c.29-.18.54-.47.82-.5,12.18-1.57,13.33-2.86,13.34-15.06v-45c0-15.64-1-17.09-15.69-21.59V204l30.87-2.17c4.15-.29,8.32-.4,12.45-.84,3-.33,4.37.64,4.24,3.77-.14,3.28,0,6.58,0,9.87l1.64,1.34a25,25,0,0,1,2.87-4.37c6.36-6.37,13.55-11.39,22.76-12.49,8.15-1,15.41,1,20.05,8.26s4.65,14.82.45,22.25-12.44,10.07-21.26,6.93c-7.49-2.66-10.28-8-9-17.2.18-1.29.35-2.59.53-3.89-9.75-.32-18.08,7.51-18.08,16.74q0,22.25,0,44.47c0,10.53,1.75,12.57,12.27,14.4C667,291.38,669,291.67,671.44,292.06Z"/></g></g></svg>